<svg height="512pt" viewBox="0 0 512.001 512" width="512pt" xmlns="http://www.w3.org/2000/svg"><path d="m100.496094 125.722656c13.910156 0 25.222656-11.316406 25.222656-25.226562 0-13.90625-11.3125-25.222656-25.222656-25.222656-13.90625 0-25.222656 11.316406-25.222656 25.226562 0 13.90625 11.316406 25.222656 25.222656 25.222656zm0-35.445312c5.636718 0 10.222656 4.582031 10.222656 10.222656 0 5.636719-4.585938 10.222656-10.222656 10.222656-5.636719 0-10.21875-4.585937-10.21875-10.222656 0-5.640625 4.582031-10.222656 10.21875-10.222656zm0 0"/><path d="m411.503906 75.273438c-13.90625 0-25.222656 11.316406-25.222656 25.226562 0 13.90625 11.3125 25.222656 25.222656 25.222656s25.222656-11.316406 25.222656-25.222656c0-13.910156-11.316406-25.226562-25.222656-25.226562zm0 35.445312c-5.636718 0-10.222656-4.582031-10.222656-10.222656 0-5.636719 4.585938-10.222656 10.222656-10.222656 5.636719 0 10.222656 4.585937 10.222656 10.222656 0 5.640625-4.585937 10.222656-10.222656 10.222656zm0 0"/><path d="m100.496094 386.28125c-13.90625 0-25.222656 11.3125-25.222656 25.222656s11.316406 25.222656 25.222656 25.222656c13.910156 0 25.222656-11.3125 25.222656-25.222656s-11.3125-25.222656-25.222656-25.222656zm0 35.445312c-5.636719 0-10.21875-4.585937-10.21875-10.222656 0-5.636718 4.582031-10.222656 10.21875-10.222656 5.636718 0 10.222656 4.585938 10.222656 10.222656 0 5.636719-4.585938 10.222656-10.222656 10.222656zm0 0"/><path d="m411.503906 386.28125c-13.90625 0-25.222656 11.3125-25.222656 25.222656s11.3125 25.222656 25.222656 25.222656 25.222656-11.3125 25.222656-25.222656-11.316406-25.222656-25.222656-25.222656zm0 35.445312c-5.636718 0-10.222656-4.585937-10.222656-10.222656 0-5.636718 4.585938-10.222656 10.222656-10.222656 5.636719 0 10.222656 4.585938 10.222656 10.222656 0 5.636719-4.585937 10.222656-10.222656 10.222656zm0 0"/><path d="m504.5 127.136719c4.144531 0 7.5-3.359375 7.5-7.5s-3.355469-7.5-7.5-7.5h-39.761719v-20.785157c0-24.3125-19.777343-44.089843-44.085937-44.089843h-20.789063v-39.761719c0-4.140625-3.355469-7.5-7.5-7.5-4.140625 0-7.5 3.359375-7.5 7.5v39.761719h-53.179687v-39.761719c0-4.140625-3.359375-7.5-7.503906-7.5-4.140626 0-7.5 3.359375-7.5 7.5v39.761719h-53.179688v-39.761719c0-4.140625-3.355469-7.5-7.5-7.5s-7.5 3.359375-7.5 7.5v39.761719h-53.183594v-39.761719c0-4.140625-3.355468-7.5-7.5-7.5-4.140625 0-7.5 3.359375-7.5 7.5v39.761719h-53.179687v-39.761719c0-4.140625-3.359375-7.5-7.5-7.5-4.144531 0-7.5 3.359375-7.5 7.5v39.761719h-20.785157c-24.3125 0-44.089843 19.777343-44.089843 44.089843v20.785157h-39.761719c-4.144531 0-7.5 3.359375-7.5 7.5s3.355469 7.5 7.5 7.5h39.761719v53.183593h-39.761719c-4.144531 0-7.5 3.355469-7.5 7.5 0 4.140626 3.355469 7.5 7.5 7.5h39.761719v53.179688h-39.761719c-4.144531 0-7.5 3.359375-7.5 7.5 0 4.144531 3.355469 7.5 7.5 7.5h39.761719v53.183594h-39.761719c-4.144531 0-7.5 3.355468-7.5 7.5 0 4.144531 3.355469 7.5 7.5 7.5h39.761719v53.179687h-39.761719c-4.144531 0-7.5 3.359375-7.5 7.503907 0 4.140624 3.355469 7.5 7.5 7.5h39.761719v20.785156c0 24.308594 19.777343 44.085937 44.089843 44.085937h20.785157v39.761719c0 4.144531 3.355469 7.5 7.5 7.5s7.5-3.355469 7.5-7.5v-39.761719h53.179687v39.761719c0 4.144531 3.359375 7.5 7.503906 7.5 4.140626 0 7.5-3.355469 7.5-7.5v-39.761719h53.179688v39.761719c0 4.144531 3.355469 7.5 7.5 7.5s7.5-3.355469 7.5-7.5v-39.761719h53.183594v39.761719c0 4.144531 3.355468 7.5 7.5 7.5 4.140625 0 7.5-3.355469 7.5-7.5v-39.761719h53.183594v39.761719c0 4.144531 3.355468 7.5 7.5 7.5 4.140624 0 7.5-3.355469 7.5-7.5v-39.761719h20.785156c24.3125 0 44.089844-19.777343 44.089844-44.085937v-20.785156h39.757812c4.144531 0 7.5-3.359376 7.5-7.5 0-4.144532-3.355469-7.503907-7.5-7.503907h-39.757812v-53.179687h39.757812c4.144531 0 7.5-3.355469 7.5-7.5 0-4.144532-3.355469-7.5-7.5-7.5h-39.757812v-53.183594h39.757812c4.144531 0 7.5-3.355469 7.5-7.5 0-4.140625-3.355469-7.5-7.5-7.5h-39.757812v-53.179688h39.757812c4.144531 0 7.5-3.359374 7.5-7.5 0-4.144531-3.355469-7.5-7.5-7.5h-39.757812v-53.183593zm-83.847656 322.601562h-329.300782c-16.039062 0-29.089843-13.046875-29.089843-29.085937v-329.300782c0-16.039062 13.050781-29.089843 29.089843-29.089843h329.300782c16.035156 0 29.085937 13.050781 29.085937 29.089843v300.992188.019531.019531 28.265626c0 16.042968-13.050781 29.089843-29.085937 29.089843zm0 0"/><path d="m399.609375 380.621094c11.601563-4.496094 19.394531-15.875 19.394531-28.316406v-78.804688c0-4.140625-3.359375-7.5-7.5-7.5-4.144531 0-7.5 3.359375-7.5 7.5v78.804688c0 6.296874-3.945312 12.054687-9.816406 14.328124-12.617188 4.894532-22.660156 14.9375-27.554688 27.558594-2.273437 5.867188-8.03125 9.8125-14.328124 9.8125h-192.609376c-6.296874 0-12.054687-3.941406-14.328124-9.8125-4.894532-12.621094-14.9375-22.664062-27.554688-27.558594-5.871094-2.273437-9.816406-8.03125-9.816406-14.324218v-192.613282c0-6.292968 3.945312-12.054687 9.816406-14.328124 12.617188-4.890626 22.660156-14.9375 27.554688-27.554688 2.273437-5.871094 8.03125-9.816406 14.328124-9.816406h78.804688c4.140625 0 7.5-3.355469 7.5-7.5 0-4.140625-3.359375-7.5-7.5-7.5h-78.804688c-12.441406 0-23.820312 7.792968-28.316406 19.394531-3.371094 8.695313-10.292968 15.617187-18.988281 18.988281-11.601563 4.496094-19.394531 15.875-19.394531 28.316406v192.609376c0 12.441406 7.792968 23.820312 19.394531 28.316406 8.695313 3.371094 15.617187 10.292968 18.988281 18.988281 4.496094 11.601563 15.875 19.394531 28.316406 19.394531h192.609376c12.441406 0 23.820312-7.792968 28.316406-19.394531 3.371094-8.695313 10.292968-15.617187 18.988281-18.988281zm0 0"/><path d="m273.5 107.996094h78.804688c6.296874 0 12.054687 3.945312 14.328124 9.816406 4.890626 12.617188 14.933594 22.664062 27.554688 27.554688 5.871094 2.273437 9.816406 8.035156 9.816406 14.328124v78.804688c0 4.140625 3.355469 7.5 7.5 7.5 4.140625 0 7.5-3.359375 7.5-7.5v-78.804688c0-12.441406-7.792968-23.820312-19.394531-28.3125-8.695313-3.375-15.617187-10.296874-18.988281-18.992187-4.496094-11.597656-15.875-19.390625-28.316406-19.390625h-78.804688c-4.140625 0-7.5 3.355469-7.5 7.5 0 4.140625 3.359375 7.496094 7.5 7.496094zm0 0"/></svg>